<mxfile host="Electron" agent="Mozilla/5.0 (Macintosh; Intel Mac OS X 10_15_7) AppleWebKit/537.36 (KHTML, like Gecko) draw.io/26.0.16 Chrome/132.0.6834.196 Electron/34.2.0 Safari/537.36" version="26.0.16">
  <diagram id="Ht1M8jgEwFfnCIfOTk4-" name="Page-1">
    <mxGraphModel dx="1908" dy="2281" grid="1" gridSize="10" guides="1" tooltips="1" connect="1" arrows="1" fold="1" page="1" pageScale="1" pageWidth="1169" pageHeight="827" math="0" shadow="0">
      <root>
        <mxCell id="0" />
        <mxCell id="1" parent="0" />
        <mxCell id="cniMFsinqGmi4-nNKcan-12" value="Public subnet" style="points=[[0,0],[0.25,0],[0.5,0],[0.75,0],[1,0],[1,0.25],[1,0.5],[1,0.75],[1,1],[0.75,1],[0.5,1],[0.25,1],[0,1],[0,0.75],[0,0.5],[0,0.25]];outlineConnect=0;gradientColor=none;html=1;whiteSpace=wrap;fontSize=12;fontStyle=0;container=1;pointerEvents=0;collapsible=0;recursiveResize=0;shape=mxgraph.aws4.group;grIcon=mxgraph.aws4.group_security_group;grStroke=0;strokeColor=#7AA116;fillColor=#F2F6E8;verticalAlign=top;align=left;spacingLeft=30;fontColor=#248814;dashed=0;" vertex="1" parent="1">
          <mxGeometry x="360" y="190" width="240" height="170" as="geometry" />
        </mxCell>
        <mxCell id="UEzPUAAOIrF-is8g5C7q-74" value="AWS Cloud" style="points=[[0,0],[0.25,0],[0.5,0],[0.75,0],[1,0],[1,0.25],[1,0.5],[1,0.75],[1,1],[0.75,1],[0.5,1],[0.25,1],[0,1],[0,0.75],[0,0.5],[0,0.25]];outlineConnect=0;gradientColor=none;html=1;whiteSpace=wrap;fontSize=12;fontStyle=0;shape=mxgraph.aws4.group;grIcon=mxgraph.aws4.group_aws_cloud_alt;strokeColor=#232F3E;fillColor=none;verticalAlign=top;align=left;spacingLeft=30;fontColor=#232F3E;dashed=0;labelBackgroundColor=#ffffff;container=1;pointerEvents=0;collapsible=0;recursiveResize=0;" parent="1" vertex="1">
          <mxGeometry x="50" y="80" width="940" height="670" as="geometry" />
        </mxCell>
        <mxCell id="cniMFsinqGmi4-nNKcan-26" value="IAM &lt;br&gt;User" style="outlineConnect=0;dashed=0;verticalLabelPosition=bottom;verticalAlign=top;align=center;html=1;shape=mxgraph.aws3.iam;fillColor=#759C3E;gradientColor=none;" vertex="1" parent="UEzPUAAOIrF-is8g5C7q-74">
          <mxGeometry x="898" y="294.25" width="42" height="81" as="geometry" />
        </mxCell>
        <mxCell id="UEzPUAAOIrF-is8g5C7q-92" value="" style="edgeStyle=orthogonalEdgeStyle;rounded=0;orthogonalLoop=1;jettySize=auto;html=1;endArrow=open;endFill=0;strokeWidth=2;" parent="1" source="UEzPUAAOIrF-is8g5C7q-81" target="cniMFsinqGmi4-nNKcan-10" edge="1">
          <mxGeometry relative="1" as="geometry">
            <mxPoint x="723" y="349" as="targetPoint" />
            <Array as="points" />
          </mxGeometry>
        </mxCell>
        <mxCell id="cniMFsinqGmi4-nNKcan-1" value="VPC" style="points=[[0,0],[0.25,0],[0.5,0],[0.75,0],[1,0],[1,0.25],[1,0.5],[1,0.75],[1,1],[0.75,1],[0.5,1],[0.25,1],[0,1],[0,0.75],[0,0.5],[0,0.25]];outlineConnect=0;gradientColor=none;html=1;whiteSpace=wrap;fontSize=12;fontStyle=0;container=1;pointerEvents=0;collapsible=0;recursiveResize=0;shape=mxgraph.aws4.group;grIcon=mxgraph.aws4.group_vpc2;strokeColor=#8C4FFF;fillColor=none;verticalAlign=top;align=left;spacingLeft=30;fontColor=#AAB7B8;dashed=0;" vertex="1" parent="1">
          <mxGeometry x="100" y="110" width="820" height="610" as="geometry" />
        </mxCell>
        <mxCell id="cniMFsinqGmi4-nNKcan-13" value="Private subnet" style="points=[[0,0],[0.25,0],[0.5,0],[0.75,0],[1,0],[1,0.25],[1,0.5],[1,0.75],[1,1],[0.75,1],[0.5,1],[0.25,1],[0,1],[0,0.75],[0,0.5],[0,0.25]];outlineConnect=0;gradientColor=none;html=1;whiteSpace=wrap;fontSize=12;fontStyle=0;container=1;pointerEvents=0;collapsible=0;recursiveResize=0;shape=mxgraph.aws4.group;grIcon=mxgraph.aws4.group_security_group;grStroke=0;strokeColor=#00A4A6;fillColor=#E6F6F7;verticalAlign=top;align=left;spacingLeft=30;fontColor=#147EBA;dashed=0;" vertex="1" parent="cniMFsinqGmi4-nNKcan-1">
          <mxGeometry x="185" y="312" width="390" height="280" as="geometry" />
        </mxCell>
        <mxCell id="cniMFsinqGmi4-nNKcan-3" value="EC2 Instance&lt;br&gt;(Web Server)" style="sketch=0;points=[[0,0,0],[0.25,0,0],[0.5,0,0],[0.75,0,0],[1,0,0],[0,1,0],[0.25,1,0],[0.5,1,0],[0.75,1,0],[1,1,0],[0,0.25,0],[0,0.5,0],[0,0.75,0],[1,0.25,0],[1,0.5,0],[1,0.75,0]];outlineConnect=0;fontColor=#232F3E;fillColor=#ED7100;strokeColor=#ffffff;dashed=0;verticalLabelPosition=bottom;verticalAlign=top;align=center;html=1;fontSize=12;fontStyle=0;aspect=fixed;shape=mxgraph.aws4.resourceIcon;resIcon=mxgraph.aws4.ec2;" vertex="1" parent="cniMFsinqGmi4-nNKcan-13">
          <mxGeometry x="156" y="101" width="78" height="78" as="geometry" />
        </mxCell>
        <mxCell id="cniMFsinqGmi4-nNKcan-21" value="Security Group" style="rounded=1;arcSize=10;dashed=1;strokeColor=#ff0000;fillColor=none;gradientColor=none;dashPattern=8 4;strokeWidth=2;verticalAlign=top;" vertex="1" parent="cniMFsinqGmi4-nNKcan-13">
          <mxGeometry x="72" y="40.25" width="260" height="209.75" as="geometry" />
        </mxCell>
        <mxCell id="cniMFsinqGmi4-nNKcan-25" value="Route tables" style="sketch=0;outlineConnect=0;fontColor=#232F3E;gradientColor=none;fillColor=#8C4FFF;strokeColor=none;dashed=0;verticalLabelPosition=bottom;verticalAlign=top;align=center;html=1;fontSize=12;fontStyle=0;aspect=fixed;pointerEvents=1;shape=mxgraph.aws4.route_table;" vertex="1" parent="cniMFsinqGmi4-nNKcan-13">
          <mxGeometry x="23.05" y="214" width="36.95" height="36" as="geometry" />
        </mxCell>
        <mxCell id="UEzPUAAOIrF-is8g5C7q-81" value="Amazon Simple&lt;br&gt;Notification Service&lt;br&gt;" style="outlineConnect=0;fontColor=#232F3E;gradientColor=#F34482;gradientDirection=north;fillColor=#BC1356;strokeColor=#ffffff;dashed=0;verticalLabelPosition=bottom;verticalAlign=top;align=center;html=1;fontSize=12;fontStyle=0;aspect=fixed;shape=mxgraph.aws4.resourceIcon;resIcon=mxgraph.aws4.sns;labelBackgroundColor=#ffffff;" parent="cniMFsinqGmi4-nNKcan-1" vertex="1">
          <mxGeometry x="718" y="80.80000000000001" width="78" height="78" as="geometry" />
        </mxCell>
        <mxCell id="cniMFsinqGmi4-nNKcan-15" value="Cloudwatch&lt;br&gt;-Log groups&amp;nbsp;&lt;br&gt;- Metrics" style="sketch=0;points=[[0,0,0],[0.25,0,0],[0.5,0,0],[0.75,0,0],[1,0,0],[0,1,0],[0.25,1,0],[0.5,1,0],[0.75,1,0],[1,1,0],[0,0.25,0],[0,0.5,0],[0,0.75,0],[1,0.25,0],[1,0.5,0],[1,0.75,0]];points=[[0,0,0],[0.25,0,0],[0.5,0,0],[0.75,0,0],[1,0,0],[0,1,0],[0.25,1,0],[0.5,1,0],[0.75,1,0],[1,1,0],[0,0.25,0],[0,0.5,0],[0,0.75,0],[1,0.25,0],[1,0.5,0],[1,0.75,0]];outlineConnect=0;fontColor=#232F3E;fillColor=#E7157B;strokeColor=#ffffff;dashed=0;verticalLabelPosition=bottom;verticalAlign=top;align=center;html=1;fontSize=12;fontStyle=0;aspect=fixed;shape=mxgraph.aws4.resourceIcon;resIcon=mxgraph.aws4.cloudwatch_2;" vertex="1" parent="cniMFsinqGmi4-nNKcan-1">
          <mxGeometry x="534" y="80.8" width="78" height="78" as="geometry" />
        </mxCell>
        <mxCell id="UEzPUAAOIrF-is8g5C7q-105" value="Monitor template" style="edgeStyle=orthogonalEdgeStyle;rounded=0;orthogonalLoop=1;jettySize=auto;html=1;endArrow=open;endFill=0;strokeWidth=2;exitX=1;exitY=0.5;exitDx=0;exitDy=0;exitPerimeter=0;" parent="cniMFsinqGmi4-nNKcan-1" source="cniMFsinqGmi4-nNKcan-15" target="UEzPUAAOIrF-is8g5C7q-81" edge="1">
          <mxGeometry x="0.1208" y="-10" relative="1" as="geometry">
            <Array as="points">
              <mxPoint x="590" y="120" />
              <mxPoint x="590" y="120" />
            </Array>
            <mxPoint as="offset" />
            <mxPoint x="800.0000000000005" y="70" as="sourcePoint" />
            <mxPoint x="399.9999999999998" y="70" as="targetPoint" />
          </mxGeometry>
        </mxCell>
        <mxCell id="cniMFsinqGmi4-nNKcan-20" value="Internet Gateway" style="outlineConnect=0;dashed=0;verticalLabelPosition=bottom;verticalAlign=top;align=center;html=1;shape=mxgraph.aws3.internet_gateway;fillColor=#F58534;gradientColor=none;" vertex="1" parent="cniMFsinqGmi4-nNKcan-1">
          <mxGeometry x="345.5" y="110.00000000000001" width="69" height="72" as="geometry" />
        </mxCell>
        <mxCell id="cniMFsinqGmi4-nNKcan-23" style="edgeStyle=orthogonalEdgeStyle;rounded=0;orthogonalLoop=1;jettySize=auto;html=1;endArrow=open;endFill=0;strokeWidth=2;startArrow=open;startFill=0;exitX=0.5;exitY=0;exitDx=0;exitDy=0;entryX=0.5;entryY=1;entryDx=0;entryDy=0;entryPerimeter=0;" edge="1" parent="cniMFsinqGmi4-nNKcan-1" source="cniMFsinqGmi4-nNKcan-13" target="cniMFsinqGmi4-nNKcan-20">
          <mxGeometry relative="1" as="geometry">
            <Array as="points">
              <mxPoint x="380" y="290" />
              <mxPoint x="380" y="90" />
            </Array>
            <mxPoint x="380" y="28" as="sourcePoint" />
            <mxPoint x="380" y="-118" as="targetPoint" />
          </mxGeometry>
        </mxCell>
        <mxCell id="cniMFsinqGmi4-nNKcan-24" value="Route tables" style="sketch=0;outlineConnect=0;fontColor=#232F3E;gradientColor=none;fillColor=#8C4FFF;strokeColor=none;dashed=0;verticalLabelPosition=bottom;verticalAlign=top;align=center;html=1;fontSize=12;fontStyle=0;aspect=fixed;pointerEvents=1;shape=mxgraph.aws4.route_table;" vertex="1" parent="cniMFsinqGmi4-nNKcan-1">
          <mxGeometry x="450" y="80.8" width="36.95" height="36" as="geometry" />
        </mxCell>
        <mxCell id="UEzPUAAOIrF-is8g5C7q-97" style="edgeStyle=orthogonalEdgeStyle;rounded=0;orthogonalLoop=1;jettySize=auto;html=1;endArrow=open;endFill=0;strokeWidth=2;startArrow=open;startFill=0;exitX=1;exitY=0.25;exitDx=0;exitDy=0;entryX=0.5;entryY=1;entryDx=0;entryDy=0;entryPerimeter=0;exitPerimeter=0;" parent="cniMFsinqGmi4-nNKcan-1" source="cniMFsinqGmi4-nNKcan-3" target="cniMFsinqGmi4-nNKcan-15" edge="1">
          <mxGeometry relative="1" as="geometry">
            <Array as="points">
              <mxPoint x="573" y="433" />
            </Array>
            <mxPoint x="537.9999999999998" y="418" as="sourcePoint" />
            <mxPoint x="590" y="450" as="targetPoint" />
          </mxGeometry>
        </mxCell>
        <mxCell id="cniMFsinqGmi4-nNKcan-2" value="Github&lt;br&gt;App&lt;br&gt;Repo" style="dashed=0;outlineConnect=0;html=1;align=center;labelPosition=center;verticalLabelPosition=bottom;verticalAlign=top;shape=mxgraph.weblogos.github" vertex="1" parent="1">
          <mxGeometry x="1160" y="528.5" width="75" height="75" as="geometry" />
        </mxCell>
        <mxCell id="cniMFsinqGmi4-nNKcan-4" value="Pipeline&lt;br&gt;update app" style="sketch=0;outlineConnect=0;fontColor=#232F3E;gradientColor=none;fillColor=#7AA116;strokeColor=none;dashed=0;verticalLabelPosition=bottom;verticalAlign=top;align=center;html=1;fontSize=12;fontStyle=0;aspect=fixed;pointerEvents=1;shape=mxgraph.aws4.iot_analytics_pipeline;direction=south;" vertex="1" parent="1">
          <mxGeometry x="1048" y="527" width="42" height="78" as="geometry" />
        </mxCell>
        <mxCell id="cniMFsinqGmi4-nNKcan-6" value="Github&lt;br&gt;Infra &lt;br&gt;Repo" style="dashed=0;outlineConnect=0;html=1;align=center;labelPosition=center;verticalLabelPosition=bottom;verticalAlign=top;shape=mxgraph.weblogos.github" vertex="1" parent="1">
          <mxGeometry x="1160" y="377.5" width="75" height="75" as="geometry" />
        </mxCell>
        <mxCell id="cniMFsinqGmi4-nNKcan-7" value="" style="edgeStyle=orthogonalEdgeStyle;rounded=0;orthogonalLoop=1;jettySize=auto;html=1;endArrow=open;endFill=0;strokeWidth=2;entryX=0.92;entryY=0.5;entryDx=0;entryDy=0;entryPerimeter=0;" edge="1" parent="1" source="cniMFsinqGmi4-nNKcan-6" target="cniMFsinqGmi4-nNKcan-26">
          <mxGeometry relative="1" as="geometry">
            <Array as="points" />
            <mxPoint x="1170" y="576" as="sourcePoint" />
            <mxPoint x="528" y="576" as="targetPoint" />
          </mxGeometry>
        </mxCell>
        <mxCell id="cniMFsinqGmi4-nNKcan-27" value="" style="edgeStyle=orthogonalEdgeStyle;rounded=0;orthogonalLoop=1;jettySize=auto;html=1;" edge="1" parent="1" source="cniMFsinqGmi4-nNKcan-8" target="cniMFsinqGmi4-nNKcan-6">
          <mxGeometry relative="1" as="geometry" />
        </mxCell>
        <mxCell id="cniMFsinqGmi4-nNKcan-8" value="AWS CLi" style="sketch=0;outlineConnect=0;fontColor=#232F3E;gradientColor=none;fillColor=#ED7100;strokeColor=none;dashed=0;verticalLabelPosition=bottom;verticalAlign=top;align=center;html=1;fontSize=12;fontStyle=0;aspect=fixed;pointerEvents=1;shape=mxgraph.aws4.ecs_copilot_cli;" vertex="1" parent="1">
          <mxGeometry x="1045" y="392" width="48" height="44" as="geometry" />
        </mxCell>
        <mxCell id="cniMFsinqGmi4-nNKcan-9" value="" style="points=[];aspect=fixed;html=1;align=center;shadow=0;dashed=0;fillColor=#FF6A00;strokeColor=none;shape=mxgraph.alibaba_cloud.user;" vertex="1" parent="1">
          <mxGeometry x="447" y="-54" width="60" height="60" as="geometry" />
        </mxCell>
        <mxCell id="cniMFsinqGmi4-nNKcan-10" value="User Admin" style="shadow=0;dashed=0;html=1;strokeColor=none;fillColor=#4495D1;labelPosition=center;verticalLabelPosition=bottom;verticalAlign=top;align=center;outlineConnect=0;shape=mxgraph.veeam.portal_admin;" vertex="1" parent="1">
          <mxGeometry x="1160" y="208" width="44.4" height="48.8" as="geometry" />
        </mxCell>
        <mxCell id="cniMFsinqGmi4-nNKcan-11" value="End User" style="text;html=1;align=center;verticalAlign=middle;resizable=0;points=[];autosize=1;strokeColor=none;fillColor=none;" vertex="1" parent="1">
          <mxGeometry x="442" y="-95" width="70" height="30" as="geometry" />
        </mxCell>
        <mxCell id="cniMFsinqGmi4-nNKcan-16" value="Email with alert" style="sketch=0;outlineConnect=0;fontColor=#232F3E;gradientColor=none;fillColor=#DD344C;strokeColor=none;dashed=0;verticalLabelPosition=bottom;verticalAlign=top;align=center;html=1;fontSize=12;fontStyle=0;aspect=fixed;shape=mxgraph.aws4.email;" vertex="1" parent="1">
          <mxGeometry x="1032" y="196" width="78" height="69" as="geometry" />
        </mxCell>
        <mxCell id="UEzPUAAOIrF-is8g5C7q-89" value="" style="edgeStyle=orthogonalEdgeStyle;rounded=0;orthogonalLoop=1;jettySize=auto;html=1;endArrow=open;endFill=0;strokeWidth=2;entryX=1;entryY=0.5;entryDx=0;entryDy=0;entryPerimeter=0;" parent="1" source="cniMFsinqGmi4-nNKcan-2" target="cniMFsinqGmi4-nNKcan-3" edge="1">
          <mxGeometry relative="1" as="geometry">
            <Array as="points" />
            <mxPoint x="247.47368421052647" y="218.0000000000001" as="sourcePoint" />
            <mxPoint x="370" y="350" as="targetPoint" />
          </mxGeometry>
        </mxCell>
        <mxCell id="cniMFsinqGmi4-nNKcan-22" style="edgeStyle=orthogonalEdgeStyle;rounded=0;orthogonalLoop=1;jettySize=auto;html=1;endArrow=open;endFill=0;strokeWidth=2;startArrow=open;startFill=0;exitX=0.5;exitY=0;exitDx=0;exitDy=0;entryX=0.569;entryY=1.055;entryDx=0;entryDy=0;entryPerimeter=0;exitPerimeter=0;" edge="1" parent="1" target="cniMFsinqGmi4-nNKcan-9">
          <mxGeometry relative="1" as="geometry">
            <Array as="points">
              <mxPoint x="481" y="30" />
              <mxPoint x="480" y="-17" />
            </Array>
            <mxPoint x="481" y="220" as="sourcePoint" />
            <mxPoint x="470.8799999999999" y="-18.140000000000327" as="targetPoint" />
          </mxGeometry>
        </mxCell>
        <mxCell id="cniMFsinqGmi4-nNKcan-29" value="Requests" style="edgeLabel;html=1;align=center;verticalAlign=middle;resizable=0;points=[];" vertex="1" connectable="0" parent="cniMFsinqGmi4-nNKcan-22">
          <mxGeometry x="0.6141" y="-2" relative="1" as="geometry">
            <mxPoint x="-6" as="offset" />
          </mxGeometry>
        </mxCell>
        <mxCell id="cniMFsinqGmi4-nNKcan-30" value="SSH Key" style="shape=rect;fillColor=#FA4D56;aspect=fixed;resizable=0;labelPosition=center;verticalLabelPosition=bottom;align=center;verticalAlign=top;strokeColor=none;fontSize=14;" vertex="1" parent="1">
          <mxGeometry x="445" y="800" width="48" height="48" as="geometry" />
        </mxCell>
        <mxCell id="cniMFsinqGmi4-nNKcan-31" value="" style="fillColor=#ffffff;strokeColor=none;dashed=0;outlineConnect=0;html=1;labelPosition=center;verticalLabelPosition=bottom;verticalAlign=top;part=1;movable=0;resizable=0;rotatable=0;shape=mxgraph.ibm_cloud.password" vertex="1" parent="cniMFsinqGmi4-nNKcan-30">
          <mxGeometry width="24" height="24" relative="1" as="geometry">
            <mxPoint x="12" y="12" as="offset" />
          </mxGeometry>
        </mxCell>
        <mxCell id="cniMFsinqGmi4-nNKcan-33" style="edgeStyle=orthogonalEdgeStyle;rounded=0;orthogonalLoop=1;jettySize=auto;html=1;exitX=1;exitY=0.5;exitDx=0;exitDy=0;" edge="1" parent="1" source="cniMFsinqGmi4-nNKcan-30" target="cniMFsinqGmi4-nNKcan-10">
          <mxGeometry relative="1" as="geometry">
            <Array as="points">
              <mxPoint x="1290" y="824" />
              <mxPoint x="1290" y="232" />
            </Array>
          </mxGeometry>
        </mxCell>
        <mxCell id="cniMFsinqGmi4-nNKcan-34" style="edgeStyle=orthogonalEdgeStyle;rounded=0;orthogonalLoop=1;jettySize=auto;html=1;exitX=0.431;exitY=0.657;exitDx=0;exitDy=0;exitPerimeter=0;entryX=0.5;entryY=0;entryDx=0;entryDy=0;" edge="1" parent="1" source="cniMFsinqGmi4-nNKcan-21" target="cniMFsinqGmi4-nNKcan-30">
          <mxGeometry relative="1" as="geometry">
            <mxPoint x="538" y="834" as="sourcePoint" />
            <mxPoint x="1192" y="267" as="targetPoint" />
          </mxGeometry>
        </mxCell>
        <mxCell id="cniMFsinqGmi4-nNKcan-35" value="&lt;font style=&quot;font-size: 27px;&quot;&gt;&lt;b&gt;Athena Challenge&lt;/b&gt;&lt;/font&gt;" style="text;html=1;align=center;verticalAlign=middle;resizable=0;points=[];autosize=1;strokeColor=none;fillColor=none;" vertex="1" parent="1">
          <mxGeometry x="420" y="-210" width="250" height="50" as="geometry" />
        </mxCell>
      </root>
    </mxGraphModel>
  </diagram>
</mxfile>
